<?xml version="1.0" standalone="no"?>
<!DOCTYPE svg PUBLIC "-//W3C//DTD SVG 20010904//EN"
 "http://www.w3.org/TR/2001/REC-SVG-20010904/DTD/svg10.dtd">
<svg version="1.0" xmlns="http://www.w3.org/2000/svg"
 width="184.000000pt" height="184.000000pt" viewBox="0 0 184.000000 184.000000"
 preserveAspectRatio="xMidYMid meet">
<metadata>
Created by potrace 1.11, written by Peter Selinger 2001-2013
</metadata>
<g transform="translate(0.000000,184.000000) scale(0.100000,-0.100000)"
fill="#000000" stroke="none">
<path d="M0 920 l0 -920 920 0 920 0 0 920 0 920 -920 0 -920 0 0 -920z m1076
839 c234 -42 369 -96 467 -188 139 -132 194 -292 212 -626 21 -374 -101 -636
-353 -757 -87 -41 -312 -96 -454 -110 -213 -21 -436 21 -579 107 -77 47 -177
156 -216 235 -57 117 -75 198 -80 370 -4 136 -2 174 21 310 15 85 36 187 47
225 72 243 249 383 544 429 110 17 310 20 391 5z"/>
<path d="M916 1682 c-3 -5 -30 -7 -61 -4 -37 3 -55 1 -55 -7 0 -7 14 -9 43 -5
39 5 41 4 23 -10 -11 -9 -15 -16 -10 -16 6 0 16 6 22 12 10 10 15 10 20 2 5
-9 11 -8 20 2 7 8 9 14 5 14 -4 0 -1 5 7 10 9 6 10 10 3 10 -6 0 -14 -4 -17
-8z"/>
<path d="M960 1670 c0 -5 7 -7 15 -4 8 4 15 8 15 10 0 2 -7 4 -15 4 -8 0 -15
-4 -15 -10z"/>
<path d="M1085 1652 c12 -11 24 -16 29 -11 12 11 8 14 -24 24 l-25 7 20 -20z"/>
<path d="M688 1653 c-24 -6 -23 -19 2 -26 12 -3 18 -1 14 5 -4 6 0 14 7 19 15
9 6 10 -23 2z"/>
<path d="M595 1614 c-27 -13 -39 -21 -25 -18 37 10 64 11 75 3 6 -4 11 3 11
17 2 29 2 29 -61 -2z"/>
<path d="M850 1620 c0 -5 5 -10 10 -10 6 0 10 5 10 10 0 6 -4 10 -10 10 -5 0
-10 -4 -10 -10z"/>
<path d="M1265 1570 c-4 -11 0 -29 8 -40 13 -19 15 -20 21 -3 6 15 9 15 16 3
5 -8 12 -11 16 -7 4 3 1 13 -6 22 -11 13 -10 14 3 9 8 -3 18 -12 21 -20 3 -9
10 -12 16 -9 5 3 10 -1 10 -10 0 -9 5 -13 10 -10 6 3 10 -1 10 -10 0 -9 4 -14
9 -11 5 3 8 -2 7 -12 0 -9 5 -16 12 -14 6 1 12 -2 12 -6 0 -4 10 -8 21 -8 18
0 15 6 -22 39 -49 44 -115 90 -141 100 -11 4 -19 0 -23 -13z m25 -14 c0 -3 -4
-8 -10 -11 -5 -3 -10 -1 -10 4 0 6 5 11 10 11 6 0 10 -2 10 -4z"/>
<path d="M1065 1560 c3 -5 10 -10 16 -10 5 0 9 5 9 10 0 6 -7 10 -16 10 -8 0
-12 -4 -9 -10z"/>
<path d="M442 1528 c-7 -7 -12 -18 -12 -26 0 -7 -4 -11 -9 -7 -5 3 -12 1 -16
-4 -3 -6 7 -9 24 -8 16 1 27 5 25 9 -2 4 0 9 5 13 5 3 14 -2 19 -11 8 -15 11
-14 26 7 19 27 20 39 5 39 -5 0 -8 -4 -5 -8 2 -4 1 -14 -4 -22 -7 -11 -11 -11
-24 2 -8 9 -12 18 -9 22 4 3 2 6 -3 6 -6 0 -15 -5 -22 -12z"/>
<path d="M1185 1530 c-3 -5 -1 -10 4 -10 6 0 11 5 11 10 0 6 -2 10 -4 10 -3 0
-8 -4 -11 -10z"/>
<path d="M1216 1519 c-11 -10 -15 -19 -9 -19 5 0 18 9 28 20 23 26 6 25 -19
-1z"/>
<path d="M1255 1521 c-3 -5 -1 -12 5 -16 5 -3 10 1 10 9 0 18 -6 21 -15 7z"/>
<path d="M1330 1506 c0 -2 7 -9 15 -16 13 -11 14 -10 9 4 -5 14 -24 23 -24 12z"/>
<path d="M915 1430 c3 -5 8 -10 11 -10 2 0 4 5 4 10 0 6 -5 10 -11 10 -5 0 -7
-4 -4 -10z"/>
<path d="M329 1018 c0 -2 -3 -19 -5 -38 -3 -19 -12 -40 -20 -47 -17 -13 -1
-29 18 -17 6 4 8 3 4 -4 -3 -6 -2 -13 4 -17 5 -3 10 -1 10 4 0 6 5 11 10 11 6
0 9 -3 9 -7 -3 -19 2 -27 9 -16 6 10 17 10 43 3 125 -37 489 -53 574 -25 l40
13 -37 1 c-45 1 -57 16 -26 32 29 16 494 7 526 -10 12 -6 22 -8 22 -3 0 17
-41 23 -210 32 -220 11 -348 7 -368 -14 -12 -12 -13 -18 -4 -29 10 -12 2 -15
-46 -20 -68 -7 -371 9 -422 22 -92 24 -95 26 -98 57 -4 49 -12 74 -22 74 -6 0
-10 -1 -11 -2z m17 -86 c-11 -10 -15 4 -8 28 l7 25 3 -23 c2 -13 1 -26 -2 -30z"/>
<path d="M1583 903 c9 -2 23 -2 30 0 6 3 -1 5 -18 5 -16 0 -22 -2 -12 -5z"/>
<path d="M420 861 c0 -13 207 -63 360 -86 77 -12 36 6 -46 20 -44 7 -110 21
-149 30 -38 9 -80 18 -92 21 -12 2 -34 9 -48 14 -14 5 -25 6 -25 1z"/>
<path d="M1138 853 c7 -3 16 -2 19 1 4 3 -2 6 -13 5 -11 0 -14 -3 -6 -6z"/>
<path d="M857 761 c13 -6 46 -13 75 -15 51 -5 51 -5 13 4 -22 6 -56 12 -75 15
-29 5 -31 4 -13 -4z"/>
<path d="M1490 760 c-14 -5 -41 -13 -60 -19 -32 -9 -31 -9 14 -4 81 9 81 9 78
-11 -2 -10 1 -15 7 -12 6 4 19 -2 31 -14 13 -13 32 -19 53 -18 l32 1 -33 4
c-25 3 -40 14 -60 43 -15 22 -29 39 -32 39 -3 -1 -16 -5 -30 -9z"/>
<path d="M1018 733 c12 -2 30 -2 40 0 9 3 -1 5 -23 4 -22 0 -30 -2 -17 -4z"/>
<path d="M1098 723 c6 -2 18 -2 25 0 6 3 1 5 -13 5 -14 0 -19 -2 -12 -5z"/>
<path d="M1165 719 c18 -5 33 -5 39 1 7 7 -4 10 -29 9 -40 -1 -40 -1 -10 -10z"/>
<path d="M1228 723 c6 -2 18 -2 25 0 6 3 1 5 -13 5 -14 0 -19 -2 -12 -5z"/>
<path d="M1323 723 c9 -2 25 -2 35 0 9 3 1 5 -18 5 -19 0 -27 -2 -17 -5z"/>
<path d="M1387 533 c3 -7 9 -13 13 -13 4 0 10 6 13 13 3 7 -3 13 -13 13 -10 0
-16 -6 -13 -13z"/>
<path d="M875 518 c-4 -10 -15 -20 -26 -23 -11 -4 -17 -11 -14 -16 4 -5 2 -9
-4 -9 -5 0 -11 10 -13 22 -3 21 -4 21 -18 7 -11 -12 -22 -14 -43 -8 -26 7 -27
6 -15 -8 11 -14 10 -15 -10 -9 -16 5 -22 3 -22 -8 0 -20 17 -30 23 -14 3 8 6
5 6 -5 1 -14 6 -17 22 -12 15 5 19 4 15 -4 -4 -6 0 -11 9 -11 9 0 13 5 10 10
-3 6 1 10 9 10 9 0 16 4 16 10 0 5 6 7 14 4 7 -3 12 -16 10 -30 -2 -24 -1 -25
15 -10 18 16 36 22 28 9 -3 -5 6 -8 19 -8 13 0 24 3 24 7 0 8 54 3 69 -6 5 -4
12 -2 16 4 4 6 11 7 17 4 6 -4 14 -1 18 6 7 11 12 10 24 -3 14 -14 46 -14 46
0 0 3 -7 3 -15 -1 -16 -6 -17 -5 -19 36 -1 15 1 25 5 22 4 -2 18 0 31 5 17 7
18 10 6 10 -10 1 -18 6 -18 11 0 6 -5 10 -11 10 -5 0 -7 -5 -3 -12 5 -7 2 -9
-9 -5 -9 3 -18 -1 -21 -10 -5 -13 -9 -13 -22 -2 -10 8 -18 9 -22 2 -14 -21
-58 -23 -76 -5 -9 10 -13 22 -9 27 5 4 -3 4 -16 0 -15 -5 -26 -3 -32 6 -6 11
-9 10 -14 -3z m60 -28 c3 -5 -1 -10 -10 -10 -9 0 -13 5 -10 10 3 6 8 10 10 10
2 0 7 -4 10 -10z m-35 -10 c0 -5 -2 -10 -4 -10 -3 0 -8 5 -11 10 -3 6 -1 10 4
10 6 0 11 -4 11 -10z m-90 -20 c0 -5 -4 -10 -10 -10 -5 0 -10 5 -10 10 0 6 5
10 10 10 6 0 10 -4 10 -10z m123 -9 c-4 -3 -11 -10 -15 -15 -4 -4 -6 1 -5 12
1 12 6 18 15 15 7 -3 10 -9 5 -12z m72 9 c3 -5 1 -10 -4 -10 -6 0 -11 5 -11
10 0 6 2 10 4 10 3 0 8 -4 11 -10z"/>
<path d="M980 521 c0 -6 9 -9 19 -8 11 0 17 5 15 9 -7 11 -34 10 -34 -1z"/>
<path d="M1197 514 c3 -7 9 -14 14 -14 14 0 10 17 -5 23 -10 4 -13 1 -9 -9z"/>
<path d="M1500 515 c0 -8 -9 -15 -20 -15 -22 0 -27 -16 -7 -23 17 -6 38 3 31
14 -3 5 2 12 10 15 20 8 21 24 1 24 -8 0 -15 -7 -15 -15z"/>
<path d="M1543 505 c-6 -14 -7 -23 -2 -19 13 8 31 44 22 44 -4 0 -13 -11 -20
-25z"/>
<path d="M1296 513 c-3 -4 -6 -10 -6 -14 0 -8 38 0 44 10 6 9 -30 12 -38 4z"/>
<path d="M1170 475 c0 -19 -4 -35 -10 -35 -5 0 -7 7 -4 15 7 17 -31 21 -55 6
-12 -8 -9 -11 12 -16 15 -4 27 -11 27 -15 0 -5 18 -7 40 -5 30 3 40 0 40 -11
0 -8 5 -14 10 -14 13 0 13 17 0 25 -6 4 -8 11 -5 16 10 15 23 10 21 -8 0 -10
7 -18 19 -20 l20 -3 -20 9 c-17 8 -18 10 -2 10 9 1 25 10 34 20 9 11 19 18 23
16 3 -2 19 7 36 20 16 13 23 24 17 25 -7 0 -13 -4 -13 -10 0 -5 -8 -10 -18
-10 -10 0 -22 -3 -26 -7 -3 -4 -14 -7 -24 -8 -9 -1 -28 -5 -41 -9 -20 -7 -23
-5 -18 8 7 19 3 20 -24 6 -16 -9 -19 -7 -19 10 0 11 -4 20 -10 20 -5 0 -10
-16 -10 -35z m40 -30 c-7 -8 -17 -12 -22 -9 -6 4 -5 10 3 15 22 14 33 10 19
-6z"/>
<path d="M1250 495 c0 -8 2 -15 4 -15 2 0 6 7 10 15 3 8 1 15 -4 15 -6 0 -10
-7 -10 -15z"/>
<path d="M670 451 c0 -5 5 -13 10 -16 6 -3 10 -2 10 4 0 5 -4 13 -10 16 -5 3
-10 2 -10 -4z"/>
<path d="M375 420 c27 -12 43 -12 25 0 -8 5 -22 9 -30 9 -10 0 -8 -3 5 -9z"/>
<path d="M1450 398 c0 -4 4 -8 9 -8 6 0 12 4 15 8 3 5 -1 9 -9 9 -8 0 -15 -4
-15 -9z"/>
<path d="M1075 390 c-3 -5 -1 -10 4 -10 6 0 11 5 11 10 0 6 -2 10 -4 10 -3 0
-8 -4 -11 -10z"/>
<path d="M1162 386 c-7 -11 -11 -28 -14 -57 -2 -12 -14 -16 -48 -18 l-45 -1
28 25 c34 32 34 37 2 25 -19 -7 -25 -6 -25 4 0 9 -9 12 -26 8 -22 -4 -24 -6
-10 -14 17 -10 22 -38 6 -38 -5 0 -7 6 -4 14 3 9 -2 13 -18 11 -13 -1 -29 -3
-35 -4 -7 0 -13 -6 -13 -12 0 -7 9 -9 21 -6 17 5 20 1 17 -21 -2 -20 2 -28 16
-30 10 -2 22 2 27 10 7 10 9 9 9 -6 0 -15 5 -17 26 -12 15 4 32 2 40 -5 8 -6
22 -9 33 -6 13 3 22 -3 30 -19 11 -26 3 -32 -18 -11 -10 10 -11 8 -5 -7 6 -16
4 -18 -12 -12 -15 6 -16 5 -7 -5 19 -19 63 4 58 30 -5 27 30 55 72 58 36 2 66
19 58 33 -7 12 27 22 38 11 13 -13 0 -31 -18 -25 -7 3 -18 -4 -25 -15 -14 -28
-4 -26 37 5 38 29 41 40 13 49 -11 4 -18 11 -15 16 4 5 1 9 -4 9 -6 0 -11 -8
-11 -17 -1 -17 -1 -17 -14 -1 -11 15 -19 16 -49 7 -21 -5 -42 -7 -47 -4 -6 3
-7 -1 -4 -10 4 -9 13 -14 20 -11 10 4 14 -3 14 -20 0 -23 -1 -24 -16 -10 -8 9
-19 16 -24 16 -4 0 -10 14 -12 30 -4 25 -2 29 13 25 9 -3 20 -1 24 5 3 5 -2
10 -12 11 -10 0 -28 2 -41 3 -13 2 -26 -2 -30 -8z m29 -19 c-1 -4 -1 -14 -1
-22 0 -26 -16 -16 -18 11 -1 15 3 24 9 22 6 -2 10 -7 10 -11z m-91 -77 c0 -5
-4 -10 -10 -10 -5 0 -10 5 -10 10 0 6 5 10 10 10 6 0 10 -4 10 -10z"/>
<path d="M1284 385 c-10 -8 -14 -15 -7 -15 6 0 15 5 18 10 4 6 11 7 17 4 7 -4
8 -2 4 4 -9 15 -8 15 -32 -3z"/>
<path d="M1335 390 c-3 -6 1 -7 9 -4 18 7 21 14 7 14 -6 0 -13 -4 -16 -10z"/>
<path d="M1120 381 c0 -6 4 -12 8 -15 5 -3 9 1 9 9 0 8 -4 15 -9 15 -4 0 -8
-4 -8 -9z"/>
<path d="M675 370 c-3 -6 1 -7 9 -4 18 7 21 14 7 14 -6 0 -13 -4 -16 -10z"/>
<path d="M759 377 c-6 -18 -5 -37 2 -37 5 0 9 -5 9 -11 0 -5 -4 -7 -10 -4 -5
3 -10 -1 -10 -10 0 -9 -4 -13 -10 -10 -5 3 -10 17 -10 30 0 27 -15 41 -26 24
-4 -8 -3 -9 4 -5 17 10 15 -3 -3 -20 -16 -16 -22 -16 -46 -3 -10 5 -20 4 -27
-3 -9 -9 -12 -8 -12 2 0 13 -2 13 -10 0 -14 -22 -12 -30 6 -30 9 0 14 -6 11
-13 -4 -10 4 -13 29 -12 19 0 36 -5 38 -12 3 -7 16 -12 28 -12 l23 2 -22 4
c-13 2 -23 9 -23 15 0 5 7 8 15 4 8 -3 15 -1 15 4 0 6 7 10 16 10 8 0 13 -3
11 -7 -9 -14 17 -28 51 -28 17 0 32 3 32 7 0 5 -7 8 -17 8 -9 0 -13 3 -10 7 4
4 26 -4 49 -17 22 -13 38 -18 34 -11 -4 6 -1 11 8 11 8 0 16 -6 19 -12 3 -10
7 -10 20 1 10 7 17 19 17 25 0 6 -4 4 -10 -4 -5 -8 -12 -11 -17 -7 -12 13 20
27 34 15 10 -8 13 -6 13 10 0 11 -7 23 -16 26 -9 3 -14 12 -11 20 3 8 -3 22
-14 32 -13 11 -19 13 -19 4 0 -7 -7 -10 -15 -6 -8 3 -15 2 -15 -2 0 -4 -23 -8
-50 -10 -28 -1 -50 2 -50 7 0 7 -29 25 -31 18z m173 -39 c-7 -7 -12 -8 -12 -2
0 14 12 26 19 19 2 -3 -1 -11 -7 -17z m-42 -4 c0 -2 -7 -4 -15 -4 -8 0 -15 4
-15 10 0 5 7 7 15 4 8 -4 15 -8 15 -10z m-64 -11 c-18 -5 -18 -6 5 -19 16 -9
19 -13 8 -14 -9 0 -23 8 -32 18 -15 17 -14 18 11 19 18 0 20 -1 8 -4z m-106
-23 c0 -5 -7 -10 -16 -10 -8 0 -12 5 -9 10 3 6 10 10 16 10 5 0 9 -4 9 -10z
m-60 -10 c0 -5 -2 -10 -4 -10 -3 0 -8 5 -11 10 -3 6 -1 10 4 10 6 0 11 -4 11
-10z m260 0 c0 -5 -4 -10 -9 -10 -6 0 -13 5 -16 10 -3 6 1 10 9 10 9 0 16 -4
16 -10z"/>
<path d="M975 370 c-3 -5 -1 -10 4 -10 6 0 11 5 11 10 0 6 -2 10 -4 10 -3 0
-8 -4 -11 -10z"/>
<path d="M1410 371 c0 -5 -3 -18 -7 -28 -6 -17 -5 -17 15 1 12 10 19 23 16 27
-7 12 -24 11 -24 0z"/>
<path d="M1125 340 c-3 -5 -1 -10 4 -10 6 0 11 5 11 10 0 6 -2 10 -4 10 -3 0
-8 -4 -11 -10z"/>
<path d="M535 320 c-3 -5 -1 -10 4 -10 6 0 11 5 11 10 0 6 -2 10 -4 10 -3 0
-8 -4 -11 -10z"/>
<path d="M569 311 c8 -5 10 -14 6 -21 -5 -9 -4 -11 3 -6 7 4 12 2 12 -5 0 -7
3 -10 6 -7 9 9 -15 48 -29 48 -8 0 -8 -3 2 -9z"/>
<path d="M450 306 c0 -2 12 -12 28 -21 l27 -18 -19 21 c-17 20 -36 29 -36 18z"/>
<path d="M1235 230 c-3 -6 1 -7 9 -4 18 7 21 14 7 14 -6 0 -13 -4 -16 -10z"/>
<path d="M674 195 c8 -8 18 -15 22 -15 3 0 1 7 -6 15 -7 8 -17 15 -22 15 -5 0
-3 -7 6 -15z"/>
<path d="M896 201 c-4 -5 -17 -8 -31 -6 -14 1 -25 -2 -25 -7 0 -5 -4 -7 -9 -3
-5 3 -12 1 -16 -5 -3 -5 -16 -10 -28 -11 -18 -1 -16 -3 8 -10 42 -13 253 -5
267 9 9 9 1 11 -35 6 -41 -6 -47 -5 -41 10 4 11 1 16 -11 16 -9 0 -13 -4 -10
-10 3 -5 1 -10 -5 -10 -6 0 -9 -4 -5 -9 3 -6 -12 -10 -35 -9 -22 0 -43 5 -46
10 -4 6 2 8 15 3 17 -5 21 -2 21 14 0 22 -5 27 -14 12z"/>
<path d="M1000 200 c0 -5 5 -10 10 -10 6 0 10 5 10 10 0 6 -4 10 -10 10 -5 0
-10 -4 -10 -10z"/>
<path d="M1087 203 c-4 -3 -7 -13 -7 -21 0 -12 3 -12 15 -2 8 6 20 8 27 4 10
-6 9 -3 -1 9 -14 18 -24 21 -34 10z"/>
<path d="M710 184 c0 -8 9 -14 20 -14 11 0 20 4 20 9 0 5 -9 11 -20 14 -13 3
-20 0 -20 -9z"/>
</g>
</svg>
